<?xml version="1.0" encoding="iso-8859-1"?>
<!-- Uploaded to: SVG Repo, www.svgrepo.com, Generator: SVG Repo Mixer Tools -->
<svg fill="#000000" height="800px" width="800px" version="1.1" id="Layer_1" xmlns="http://www.w3.org/2000/svg" xmlns:xlink="http://www.w3.org/1999/xlink" 
	 viewBox="0 0 512 512" xml:space="preserve">
<g>
	<g>
		<circle cx="456.096" cy="55.907" r="12.306"/>
	</g>
</g>
<g>
	<g>
		<path d="M218.238,126.22c-92.383,0-167.542,75.159-167.542,167.542s75.159,167.543,167.542,167.543s167.542-75.16,167.542-167.543
			S310.621,126.22,218.238,126.22z M218.238,430.888c-75.611,0-137.125-61.515-137.125-137.126s61.514-137.125,137.125-137.125
			c75.611,0,137.125,61.514,137.125,137.125C355.362,369.374,293.849,430.888,218.238,430.888z"/>
	</g>
</g>
<g>
	<g>
		<path d="M511.999,55.606c-0.001-14.853-5.785-28.817-16.288-39.319C485.21,5.784,471.247,0,456.392,0
			c-14.855,0-28.818,5.784-39.322,16.286l-88.91,88.917c-33.292-19.453-71.036-29.679-109.922-29.679
			c-58.293,0-113.097,22.699-154.316,63.92c-41.219,41.22-63.921,96.024-63.921,154.317s22.701,113.097,63.921,154.317
			C105.141,489.3,159.944,512,218.238,512c58.293,0,113.097-22.701,154.317-63.921c41.219-41.22,63.921-96.024,63.921-154.317
			c0-38.884-10.226-76.629-29.678-109.92l88.913-88.914C506.215,84.424,511.999,70.459,511.999,55.606z M474.203,73.421
			L367.95,179.673l6.881,10.367c20.429,30.775,31.226,66.641,31.226,103.722c0,103.564-84.257,187.821-187.82,187.821
			s-187.82-84.257-187.82-187.821s84.257-187.82,187.82-187.82c37.081,0,72.947,10.798,103.725,31.227l10.367,6.882L438.58,37.794
			c4.757-4.757,11.083-7.377,17.812-7.377c6.729,0,13.054,2.62,17.811,7.379c4.758,4.757,7.379,11.083,7.379,17.811
			S478.961,68.663,474.203,73.421z"/>
	</g>
</g>
</svg>